<?xml version="1.0" encoding="UTF-8"?>
<svg id="Layer_1" data-name="Layer 1" xmlns="http://www.w3.org/2000/svg" xmlns:xlink="http://www.w3.org/1999/xlink" version="1.1" viewBox="0 0 8192 8000">
  <defs>
    <style>
      .cls-1 {
        stroke-width: 24.6px;
      }

      .cls-1, .cls-2 {
        stroke: #231f20;
      }

      .cls-1, .cls-2, .cls-3, .cls-4 {
        stroke-miterlimit: 6.8;
      }

      .cls-1, .cls-3 {
        fill: none;
      }

      .cls-2 {
        fill: #00aeef;
        stroke-width: 6.1px;
      }

      .cls-2, .cls-5 {
        fill-rule: evenodd;
      }

      .cls-5 {
        fill: url(#radial-gradient);
        stroke-width: 0px;
      }

      .cls-3, .cls-6, .cls-7, .cls-4, .cls-8 {
        isolation: isolate;
      }

      .cls-3, .cls-7, .cls-4, .cls-8 {
        font-family: OpenSans-Bold, 'Open Sans';
        font-size: 49.2px;
        font-weight: 700;
      }

      .cls-3, .cls-4 {
        stroke: #fff;
        stroke-width: .7px;
      }

      .cls-7 {
        fill: #231f20;
      }

      .cls-9 {
        display: none;
      }

      .cls-4, .cls-8 {
        fill: #000;
      }
    </style>
    <radialGradient id="radial-gradient" cx="6854.8" cy="4363.1" fx="8191.8" fy="4249.6" r="4380.7" gradientTransform="translate(-1174.8 1130.7) scale(.7)" gradientUnits="userSpaceOnUse">
      <stop offset=".2" stop-color="#b08219"/>
      <stop offset=".4" stop-color="#a4891f"/>
      <stop offset=".7" stop-color="#859d2f"/>
      <stop offset="1" stop-color="#5aba47"/>
    </radialGradient>
  </defs>
  <g id="Layer_4" data-name="Layer 4" class="cls-9">
    <g>
      <path class="cls-5" d="M6978.4,5693.1l5-182.7-20-252.7-2.5-225.2-55-315.3-50-385.4,37.5-187.7s-81.9-181.9-110.1-252.7c-28.1-70.9,27.5-105.1,27.5-105.1l40-152.6-102.6-182.7-177.6-245.2-150.1-190.2-170.2-270.3-220.2-150.1-270.3-207.7-290.3-207.7-277.8-30-330.3-57.5-175.2-25.1-180.2,22.5-227.7-25.1-252.7-17.5-377.9-127.6-302.8-65.1-272.7,22.5-280.2,10-195.2,42.5-102.6,70-192.6,60.1-365.4,7.5-217.7,20-145.1-47.5-215.2,27.5-180.2,35-132.6,172.6-35,192.6-20,202.7-47.5,227.7-27.5,62.5-20,200.2-10,115.1-22.5,202.7-35,127.6-77.6,312.8-57.5,90.1-115.1,95.1-125.1,100.1-152.6,127.6-160.2,127.6-105.1,90.1-2.5,127.6,22.5,763.2,90.1,457.9,187.7,410.4,240.2,185.1s404.1,37.6,432.9,32.6c28.8-5.1,455.4-10,455.4-10,0,0,205,23.7,225.2,15s110.1-37.5,110.1-37.5l147.7-22.5,300.3-197.7,192.6-127.6,162.7-105.1,125.1-87.6,120.1-75.1,122.6-77.6,205.2-57.5,175.2,50,82.6,15s169,220.1,192.6,205.2c23.6-15,107.6,540.5,107.6,540.5l513,62.5,355.3,25.1s624.5-.5,688.1-5,180.6-34.1,217.7-55,149.7-27.9,177.6-35c27.9-7.2,177.6-25.1,177.6-25.1,0,0,149.5-67.4,182.7-100.1s190.2-10,190.2-10l200.2,35,167.7-12.5,280.2-122.6,115.1-200.2,10-197.7-27.5-220.2v.5Z"/>
      <path class="cls-1" d="M6978.4,5693.1l5-182.7-20-252.7-2.5-225.2-55-315.3-50-385.4,37.5-187.7s-81.9-181.9-110.1-252.7c-28.1-70.9,27.5-105.1,27.5-105.1l40-152.6-102.6-182.7-177.6-245.2-150.1-190.2-170.2-270.3-220.2-150.1-270.3-207.7-290.3-207.7-277.8-30-330.3-57.5-175.2-25.1-180.2,22.5-227.7-25.1-252.7-17.5-377.9-127.6-302.8-65.1-272.7,22.5-280.2,10-195.2,42.5-102.6,70-192.6,60.1-365.4,7.5-217.7,20-145.1-47.5-215.2,27.5-180.2,35-132.6,172.6-35,192.6-20,202.7-47.5,227.7-27.5,62.5-20,200.2-10,115.1-22.5,202.7-35,127.6-77.6,312.8-57.5,90.1-115.1,95.1-125.1,100.1-152.6,127.6-160.2,127.6-105.1,90.1-2.5,127.6,22.5,763.2,90.1,457.9,187.7,410.4,240.2,185.1s404.1,37.6,432.9,32.6c28.8-5.1,455.4-10,455.4-10,0,0,205,23.7,225.2,15s110.1-37.5,110.1-37.5l147.7-22.5,300.3-197.7,192.6-127.6,162.7-105.1,125.1-87.6,120.1-75.1,122.6-77.6,205.2-57.5,175.2,50,82.6,15s169,220.1,192.6,205.2c23.6-15,107.6,540.5,107.6,540.5l513,62.5,355.3,25.1s624.5-.5,688.1-5,180.6-34.1,217.7-55,149.7-27.9,177.6-35c27.9-7.2,177.6-25.1,177.6-25.1,0,0,149.5-67.4,182.7-100.1s190.2-10,190.2-10l200.2,35,167.7-12.5,280.2-122.6,115.1-200.2,10-197.7-27.5-220.2v.5Z"/>
    </g>
  </g>
  <g id="Layer_2" data-name="Layer 2">
    <path class="cls-2" d="M9.5,1757l162.7,30,167.7,62.5s5.9-.2,15.6-.5c41.1-1.2,149.6-4.5,149.6-4.5l142.6,22.5,100.1,35,95.1,65.1,190.2,155.2,432.9,365.4,312.8,122.6,362.8,77.6,738.2,157.6,455.4,90.1-12.5-62.5-65.1-145.1-172.6-107.6,5-37.5,40,32.6,87.6,47.5-45.1-115.1-45.1-90.1-62.5-185.1,12.5-50-90.1-80.1-52.6-50,5-175.2,57.5-57.5,7.5-52.6-47.5-57.5,27.5-117.6-72.6-72.6,2.5-92.6-2.5-112.6h60.1l17.5,77.6-42.5,65.1,30,52.6,70,50-42.5,67.6-5,60.1,105.1-20,60.1-22.5-12.5,52.6-25.1,42.5s-24-3.1-45.3-5.9c-17-2.2-32.3-4.2-32.3-4.2l30,60.1-35,45.1-32.6,37.5-25.1,62.5-15,102.6,122.6,115.1,15,70,15,67.6,97.6,270.3,112.6,205.2,22.5,50,57.5-10s25.9-5.1,57.2-11.3c47.7-9.4,107.9-21.2,107.9-21.2l-32.6,32.6-107.6,47.5,85.1,32.6,57.5,12.5,42.5-60.1,27.5-70,95.1-20,37.5,60.1-27.5,85.1-32.6,97.6,272.7,305.3,80.1,97.6h75.1l17.5,65.1,25.1,112.6,25.1,165.1,90.1,70,102.6,15,155.2-32.6,127.6-27.5,217.7,2.5,130.1,10,205.2,67.6,137.6,127.6,112.6,140.2,257.7,277.8,137.6,140.2,177.6,2.5,285.3,37.5,267.7,135.1,145.1-32.6,287.7,10,240.2,30,352.8,47.5,480.5,42.5,60.1,5-10,132.6-192.6-47.5-225.2,2.5-107.6-52.6-162.7-5s-107.8-23.8-165.1-25.1c-57.3-1.2-187.7-20-187.7-20l-240.2-17.5-205.2,72.6-115.1,2.5-130.1,27.5-207.7,60.1-100.1-15-67.6-62.5-15-75.1-27.5-162.7s-11.5-54.8-32.6-45.1-67.6,10-67.6,10l-87.6,17.5-40-80.1-105.1-77.6-97.6-132.6-157.6-165.1-80.1-72.6-117.6-92.6-97.6-87.6-65.1-42.5-37.5,70-75.1-12.5-105.1-15-155.2-40-105.1-15-77.6,10-80.1,22.5-135.1,2.5-65.1-35-87.6-80.1-40-97.6-17.5-92.6-72.6,2.5,15-52.6-62.5-30,30-70-25.1-32.6-85.1-82.6-222.7,165.1-62.5-52.6,12.5-45.1-80.1-87.6,157.6,60.1,132.6-120.1-82.6-92.6-125.1-82.6-82.6-40-130.1-22.5,20,115.1,67.6,92.6-32.6,32.6-42.5-65.1-42.5-110.1-90.1,102.6-62.5-15,75.1-65.1-147.7-57.5,35-22.5,125.1,27.5,42.5-37.5-170.2-35-210.2-60.1,75.1,280.2,25.1,32.6,130.1,5,115.1,17.5-5,35h-100.1l-127.6-12.5,5,32.6,162.7,17.5,30,15-67.6,25.1-127.6-12.5-62.5,5-117.6-390.3-127.6-80.1-473-100.1-295.3-62.5-155.2-40-277.8-65.1-212.7-100.1-322.8-292.8-215.2-182.7-182.7-125.1-150.1-17.5-145.1,17.5-70-35-115.1,5-172.6-7.5,2.5-135.1v-.5h.9Z"/>
  </g>
  <g id="Layer_1-2" data-name="Layer 1-2">
    <path class="cls-1" d="M4931.5,4319.4l12.5-75.1,2.5-120.1v-97.6l-40-40-45.1-25.1-52.6-10-42.5-47.5-2.5-32.6-15-75.1,12.5-80.1-27.5-42.5-57.5-132.6-160.2-80.1-175.2-37.5-77.6-2.5-60.1-12.5-77.6-47.5-70-42.5-97.6,10-72.6-35-112.6-57.5-102.6-2.5-60.1,10-35,17.5-97.6,40-37.5,27.5-45.1-12.5-92.6,82.6-32.6,87.6-45.1,20-37.5-35-52.6,80.1,15,62.5,25.1,82.6-17.5,82.6-25.1,90.1-7.5,122.6-15,120.1-127.6,10-80.1-117.6-102.6-140.2-117.6-82.6-77.6-27.5-52.6,67.6-45.1,42.5-92.6,25.1-87.6,15-87.6,67.6-130.1,82.6-67.6,95.1-57.5,95.1-137.6,70-120.1,80.1-105.1,197.7,42.5,172.6,107.6,105.1,192.6,40,190.2,2.5,167.7-25.1,87.6-95.1,52.6-152.6,120.1-147.7,152.6-82.6,315.3-85.1,100.1-17.5,110.1-7.5,47.5-55,32.6,17.5-12.5,52.6,30,42.5,57.5,10,22.5,25.1,42.5,15h50l25.1-52.6,75.1-15,105.1,37.5,130.1,45.1,102.6,7.5,85.1,27.5,67.6,90.1,72.6,17.5,105.1,65.1,60.1,70,80.1,77.6,67.6,40,27.5-72.6,5-47.5,60.1-47.5,52.6-32.6,62.5-7.5,155.2,27.5h92.6l7.5-105.1,5-45.1v-57.5l-32.6-15-10-95.1h.3ZM4723.8,4379.4l-80.1-10-80.1-57.5-80.1,30-95.1,40-95.1-40-50-65.1-85.1-72.6-100.1-52.6-132.6-95.1-85.1-35-87.6-57.5,10-55,42.5-57.5,42.5-20,82.6-25.1,57.5-25.1,90.1-10,45.1,2.5,80.1,32.6,75.1,57.5,52.6,32.6,50,12.5,62.5,50,25.1,35,40,20,45.1,32.6,92.6,70,95.1,90.1,22.5,87.6-40,85.1h-.1.1ZM6978.4,5693.1l5-182.7-20-252.7-2.5-225.2-55-315.3-50-385.4,37.5-187.7s-81.9-181.9-110.1-252.7c-28.1-70.9,27.5-105.1,27.5-105.1l40-152.6-102.6-182.7-177.6-245.2-150.1-190.2-170.2-270.3-220.2-150.1-270.3-207.7-290.3-207.7-277.8-30-330.3-57.5-175.2-25.1-180.2,22.5-227.7-25.1-252.7-17.5-377.9-127.6-302.8-65.1-272.7,22.5-280.2,10-195.2,42.5-102.6,70-192.6,60.1-365.4,7.5-217.7,20-145.1-47.5-215.2,27.5-180.2,35-132.6,172.6-35,192.6-20,202.7-47.5,227.7-27.5,62.5-20,200.2-10,115.1-22.5,202.7-35,127.6-77.6,312.8-57.5,90.1-115.1,95.1-125.1,100.1-152.6,127.6-160.2,127.6-105.1,90.1-2.5,127.6,22.5,763.2,90.1,457.9,187.7,410.4,240.2,185.1s404.1,37.6,432.9,32.6c28.8-5.1,455.4-10,455.4-10,0,0,205,23.7,225.2,15s110.1-37.5,110.1-37.5l147.7-22.5,300.3-197.7,192.6-127.6,162.7-105.1,125.1-87.6,120.1-75.1,122.6-77.6,205.2-57.5,175.2,50,82.6,15s169,220.1,192.6,205.2c23.6-15,107.6,540.5,107.6,540.5l513,62.5,355.3,25.1s624.5-.5,688.1-5,180.6-34.1,217.7-55,149.7-27.9,177.6-35c27.9-7.2,177.6-25.1,177.6-25.1,0,0,149.5-67.4,182.7-100.1s190.2-10,190.2-10l200.2,35,167.7-12.5,280.2-122.6,115.1-200.2,10-197.7-27.5-220.2v.5ZM6177.7,3974.1l-45.1,145.1,5,110.1-87.6,57.5-145.1,130.1-110.1,142.6-57.5,182.7-125.1,117.6s-43.8,36.1-45.1,57.5-20,135.1-20,135.1l-10,135.1,52.6,172.6,137.6,175.2-22.5,107.6-60.1,42.5-7.5,147.7-90.1-47.5-107.6-130.1-165.1-2.5-122.6,20-165.1-10,85.1-125.1,12.5-45.1-155.2-10-100.1,102.6-77.6,115.1-117.6,55-75.1,90.1-42.5,95.1-247.7,70-170.2-27.5-112.6-112.6-27.5-162.7-17.5-130.1-20-102.6-10-180.2,2.5-162.7-7.5-90.1-192.6-70-195.2-167.7-202.7-57.5-162.7-105.1-67.6,37.5-95.1,107.6-107.6,127.6-27.5,177.6-45.1,112.6s-171.8-57.8-212.7-57.5-89.5,17.5-100.1,47.5-40,112.6-40,112.6l-37.5,140.2-57.5,87.6-182.7,67.6-165.1-12.5-65.1,207.7s-83.1-9.9-102.6-10c-19.5,0-107.6,5-107.6,5l-92.6-7.5-40,17.5,10,100.1-50,35s-155-52.4-187.7-60.1-90.1-25.1-90.1-25.1l-145.1-22.5-175.2-170.2-65.1-165.1-75.1-220.2-112.6-215.2-40-210.2,90.1-227.7,242.8-120.1,242.8-147.7,142.6-175.2,132.6-142.6,192.6-147.7,127.6-217.7,17.5,52.6,172.6-2.5,52.6-67.6,52.6-120.1,85.1-120.1,120.1-267.7,122.6-107.6,77.6-107.6,22.5-100.1,37.5-22.5,75.1-20,205.2-45.1,150.1-90.1,162.7-57.5,137.6-85.1,70-17.5,175.2-102.6,105.1,40,182.7-2.5,72.6,85.1,57.5,117.6,347.8,45.1,132.6-77.6,197.7-20h232.7l247.7,17.5,130.1,45.1,112.6,50,115.1,7.5,115.1,60.1,82.6,92.6,67.6,80.1,162.7,152.6,85.1,117.6-42.5,130.1,172.6,97.6,47.5,275.3,57.5,162.7-87.6,107.6v.3Z"/>
  </g>
  <g id="Layer_3" data-name="Layer 3">
    <g class="cls-6">
      <g class="cls-6">
        <text class="cls-7" transform="translate(6128.7 4890.7)"><tspan x="0" y="0">Boat Bar</tspan></text>
      </g>
    </g>
    <g class="cls-6">
      <g class="cls-6">
        <text class="cls-7" transform="translate(1935.8 4409.6)"><tspan x="0" y="0">Celestial Archives</tspan></text>
      </g>
      <g class="cls-6">
        <text class="cls-3" transform="translate(1935.8 4409.6)"><tspan x="0" y="0">Celestial Archives</tspan></text>
      </g>
    </g>
    <g class="cls-6">
      <g class="cls-6">
        <text class="cls-7" transform="translate(4074 4076.6)"><tspan x="0" y="0">Imperial District</tspan></text>
      </g>
      <g class="cls-6">
        <text class="cls-3" transform="translate(4074 4076.6)"><tspan x="0" y="0">Imperial District</tspan></text>
      </g>
    </g>
    <g class="cls-6">
      <g class="cls-6">
        <text class="cls-7" transform="translate(3297.5 3682.3)"><tspan x="0" y="0">University of the Arcane</tspan></text>
      </g>
      <g class="cls-6">
        <text class="cls-3" transform="translate(3297.5 3682.3)"><tspan x="0" y="0">University of the Arcane</tspan></text>
      </g>
    </g>
    <g class="cls-6">
      <g class="cls-6">
        <text class="cls-7" transform="translate(4174 5520.3)"><tspan x="0" y="0">Grand Bazaar</tspan></text>
      </g>
      <g class="cls-6">
        <text class="cls-3" transform="translate(4174 5520.3)"><tspan x="0" y="0">Grand Bazaar</tspan></text>
      </g>
    </g>
    <g class="cls-6">
      <g class="cls-6">
        <text class="cls-7" transform="translate(986.2 5015.7)"><tspan x="0" y="0">Guild Halls</tspan></text>
      </g>
      <g class="cls-6">
        <text class="cls-3" transform="translate(986.2 5015.7)"><tspan x="0" y="0">Guild Halls</tspan></text>
      </g>
    </g>
    <g class="cls-6">
      <g class="cls-6">
        <text class="cls-7" transform="translate(2317.4 4000)"><tspan x="0" y="0">Alchemical Labs</tspan></text>
      </g>
      <g class="cls-6">
        <text class="cls-3" transform="translate(2317.4 4000)"><tspan x="0" y="0">Alchemical Labs</tspan></text>
      </g>
    </g>
    <g class="cls-6">
      <g class="cls-6">
        <text class="cls-7" transform="translate(2429.6 3370.2)"><tspan x="0" y="0">Residential Housing</tspan></text>
      </g>
      <g class="cls-6">
        <text class="cls-3" transform="translate(2429.6 3370.2)"><tspan x="0" y="0">Residential Housing</tspan></text>
      </g>
    </g>
    <g class="cls-6">
      <g class="cls-6">
        <text class="cls-7" transform="translate(4284.8 3024)"><tspan x="0" y="0">Residential Housing</tspan></text>
      </g>
      <g class="cls-6">
        <text class="cls-3" transform="translate(4284.8 3024)"><tspan x="0" y="0">Residential Housing</tspan></text>
      </g>
    </g>
    <g class="cls-6">
      <g class="cls-6">
        <text class="cls-7" transform="translate(4690.7 4789.2)"><tspan x="0" y="0">Taverns</tspan></text>
      </g>
      <g class="cls-6">
        <text class="cls-3" transform="translate(4690.7 4789.2)"><tspan x="0" y="0">Taverns</tspan></text>
      </g>
    </g>
    <g class="cls-6">
      <g class="cls-6">
        <text class="cls-7" transform="translate(5167.3 5520.3)"><tspan x="0" y="0">The Silver Masque</tspan></text>
      </g>
      <g class="cls-6">
        <text class="cls-3" transform="translate(5167.3 5520.3)"><tspan x="0" y="0">The Silver Masque</tspan></text>
      </g>
    </g>
    <g class="cls-6">
      <g class="cls-6">
        <text class="cls-7" transform="translate(7337.2 4291.8)"><tspan x="0" y="0">Merchants</tspan></text>
      </g>
    </g>
    <g class="cls-6">
      <g class="cls-6">
        <text class="cls-7" transform="translate(7460.1 5481.6)"><tspan x="0" y="0">Farming</tspan></text>
      </g>
      <g class="cls-6">
        <text class="cls-3" transform="translate(7460.1 5481.6)"><tspan x="0" y="0">Farming</tspan></text>
      </g>
    </g>
    <g class="cls-6">
      <g class="cls-6">
        <text class="cls-7" transform="translate(6796.9 2243.8)"><tspan x="0" y="0">Farming</tspan></text>
      </g>
      <g class="cls-6">
        <text class="cls-3" transform="translate(6796.9 2243.8)"><tspan x="0" y="0">Farming</tspan></text>
      </g>
    </g>
    <g class="cls-6">
      <g class="cls-6">
        <text class="cls-7" transform="translate(3270 2190.2)"><tspan x="0" y="0">Residential Housing</tspan></text>
      </g>
      <g class="cls-6">
        <text class="cls-3" transform="translate(3270 2190.2)"><tspan x="0" y="0">Residential Housing</tspan></text>
      </g>
    </g>
    <g class="cls-6">
      <g class="cls-6">
        <text class="cls-7" transform="translate(2317.4 2351.1)"><tspan x="0" y="0">Residential Housing</tspan></text>
      </g>
      <g class="cls-6">
        <text class="cls-3" transform="translate(2317.4 2351.1)"><tspan x="0" y="0">Residential Housing</tspan></text>
      </g>
    </g>
    <g class="cls-6">
      <g class="cls-6">
        <text class="cls-7" transform="translate(1290.8 2960.6)"><tspan x="0" y="0">Residential Housing</tspan></text>
      </g>
      <g class="cls-6">
        <text class="cls-3" transform="translate(1290.8 2960.6)"><tspan x="0" y="0">Residential Housing</tspan></text>
      </g>
    </g>
    <g class="cls-6">
      <g class="cls-6">
        <text class="cls-7" transform="translate(3056.9 4912.4)"><tspan x="0" y="0">Industrial</tspan></text>
      </g>
      <g class="cls-6">
        <text class="cls-3" transform="translate(3056.9 4912.4)"><tspan x="0" y="0">Industrial</tspan></text>
      </g>
    </g>
    <g class="cls-6">
      <g class="cls-6">
        <text class="cls-7" transform="translate(2969.9 6049.2)"><tspan x="0" y="0">Merchant Gate</tspan></text>
      </g>
      <g class="cls-6">
        <text class="cls-3" transform="translate(2969.9 6049.2)"><tspan x="0" y="0">Merchant Gate</tspan></text>
      </g>
    </g>
    <g class="cls-6">
      <g class="cls-6">
        <text class="cls-7" transform="translate(6887.3 4528)"><tspan x="0" y="0">Traveler Gate</tspan></text>
      </g>
      <g class="cls-6">
        <text class="cls-3" transform="translate(6887.3 4528)"><tspan x="0" y="0">Traveler Gate</tspan></text>
      </g>
    </g>
    <g class="cls-6">
      <g class="cls-6">
        <text class="cls-7" transform="translate(4222.5 3706.7)"><tspan x="0" y="0">Residential Housing</tspan></text>
      </g>
      <g class="cls-6">
        <text class="cls-3" transform="translate(4222.5 3706.7)"><tspan x="0" y="0">Residential Housing</tspan></text>
      </g>
    </g>
    <g class="cls-6">
      <g class="cls-6">
        <text class="cls-7" transform="translate(2828.2 3877.3)"><tspan x="0" y="0">Portal Hub</tspan></text>
      </g>
      <g class="cls-6">
        <text class="cls-3" transform="translate(2828.2 3877.3)"><tspan x="0" y="0">Portal Hub</tspan></text>
      </g>
    </g>
    <g class="cls-6">
      <g class="cls-6">
        <text class="cls-7" transform="translate(3367.7 4291.8)"><tspan x="0" y="0">Portal Hub</tspan></text>
      </g>
      <g class="cls-6">
        <text class="cls-3" transform="translate(3367.7 4291.8)"><tspan x="0" y="0">Portal Hub</tspan></text>
      </g>
    </g>
    <g class="cls-6">
      <g class="cls-6">
        <text class="cls-7" transform="translate(3367.7 4912.4)"><tspan x="0" y="0">Elevator</tspan></text>
      </g>
      <g class="cls-6">
        <text class="cls-3" transform="translate(3367.7 4912.4)"><tspan x="0" y="0">Elevator</tspan></text>
      </g>
    </g>
    <g class="cls-6">
      <g class="cls-6">
        <text class="cls-7" transform="translate(539.9 6422.7)"><tspan x="0" y="0">Defences</tspan></text>
      </g>
      <g class="cls-6">
        <text class="cls-3" transform="translate(539.9 6422.7)"><tspan x="0" y="0">Defences</tspan></text>
      </g>
    </g>
    <g class="cls-6">
      <g class="cls-6">
        <text class="cls-7" transform="translate(4864.6 2190.2)"><tspan x="0" y="0">Defences</tspan></text>
      </g>
      <g class="cls-6">
        <text class="cls-3" transform="translate(4864.6 2190.2)"><tspan x="0" y="0">Defences</tspan></text>
      </g>
    </g>
    <g class="cls-6">
      <g class="cls-6">
        <text class="cls-7" transform="translate(2563 1785.4)"><tspan x="0" y="0">Defences</tspan></text>
      </g>
      <g class="cls-6">
        <text class="cls-3" transform="translate(2563 1785.4)"><tspan x="0" y="0">Defences</tspan></text>
      </g>
    </g>
    <g class="cls-6">
      <g class="cls-6">
        <text class="cls-7" transform="translate(1124.6 1970.7)"><tspan x="0" y="0">Defences</tspan></text>
      </g>
      <g class="cls-6">
        <text class="cls-3" transform="translate(1124.6 1970.7)"><tspan x="0" y="0">Defences</tspan></text>
      </g>
    </g>
    <g class="cls-6">
      <g class="cls-6">
        <text class="cls-7" transform="translate(6503 4000)"><tspan x="0" y="0">Defences</tspan></text>
      </g>
      <g class="cls-6">
        <text class="cls-3" transform="translate(6503 4000)"><tspan x="0" y="0">Defences</tspan></text>
      </g>
    </g>
    <g class="cls-6">
      <g class="cls-6">
        <text class="cls-7" transform="translate(6288.5 6310.6)"><tspan x="0" y="0">Defences</tspan></text>
      </g>
      <g class="cls-6">
        <text class="cls-3" transform="translate(6288.5 6310.6)"><tspan x="0" y="0">Defences</tspan></text>
      </g>
    </g>
    <g class="cls-6">
      <g class="cls-6">
        <text class="cls-7" transform="translate(3796.7 6461.7)"><tspan x="0" y="0">Defences</tspan></text>
      </g>
      <g class="cls-6">
        <text class="cls-3" transform="translate(3796.7 6461.7)"><tspan x="0" y="0">Defences</tspan></text>
      </g>
    </g>
    <g class="cls-6">
      <g class="cls-6">
        <text class="cls-7" transform="translate(675.1 2390.1)"><tspan x="0" y="0">Defences</tspan></text>
      </g>
      <g class="cls-6">
        <text class="cls-3" transform="translate(675.1 2390.1)"><tspan x="0" y="0">Defences</tspan></text>
      </g>
    </g>
    <g class="cls-6">
      <g class="cls-6">
        <text class="cls-7" transform="translate(944.1 3706.7)"><tspan x="0" y="0">Defences</tspan></text>
      </g>
      <g class="cls-6">
        <text class="cls-3" transform="translate(944.1 3706.7)"><tspan x="0" y="0">Defences</tspan></text>
      </g>
    </g>
    <g class="cls-6">
      <g class="cls-6">
        <text class="cls-7" transform="translate(3240.8 1746.4)"><tspan x="0" y="0">Defences</tspan></text>
      </g>
      <g class="cls-6">
        <text class="cls-3" transform="translate(3240.8 1746.4)"><tspan x="0" y="0">Defences</tspan></text>
      </g>
    </g>
    <g class="cls-6">
      <g class="cls-6">
        <text class="cls-7" transform="translate(85.9 4696.5)"><tspan x="0" y="0">Defences</tspan></text>
      </g>
      <g class="cls-6">
        <text class="cls-3" transform="translate(85.9 4696.5)"><tspan x="0" y="0">Defences</tspan></text>
      </g>
    </g>
    <g class="cls-6">
      <g class="cls-6">
        <text class="cls-7" transform="translate(6265.2 5901)"><tspan x="0" y="0">Farming</tspan></text>
      </g>
      <g class="cls-6">
        <text class="cls-3" transform="translate(6265.2 5901)"><tspan x="0" y="0">Farming</tspan></text>
      </g>
    </g>
    <g class="cls-6">
      <g class="cls-6">
        <text class="cls-7" transform="translate(4919.9 6286.2)"><tspan x="0" y="0">Farming</tspan></text>
      </g>
      <g class="cls-6">
        <text class="cls-3" transform="translate(4919.9 6286.2)"><tspan x="0" y="0">Farming</tspan></text>
      </g>
    </g>
    <g class="cls-6">
      <g class="cls-6">
        <text class="cls-7" transform="translate(5923.6 4472.2)"><tspan x="0" y="0">Elevator</tspan></text>
      </g>
      <g class="cls-6">
        <text class="cls-3" transform="translate(5923.6 4472.2)"><tspan x="0" y="0">Elevator</tspan></text>
      </g>
    </g>
    <g class="cls-6">
      <g class="cls-6">
        <text class="cls-7" transform="translate(4370 4247.9)"><tspan x="0" y="0">Temple</tspan></text>
      </g>
    </g>
    <g class="cls-6">
      <g class="cls-6">
        <text class="cls-7" transform="translate(3850.9 3937.7)"><tspan x="0" y="0">Imperial Palice</tspan></text>
      </g>
      <g class="cls-6">
        <text/>
      </g>
    </g>
    <g class="cls-6">
      <g class="cls-6">
        <text class="cls-7" transform="translate(4864.6 6813.9)"><tspan x="0" y="0">Farming</tspan></text>
      </g>
      <g class="cls-6">
        <text class="cls-3" transform="translate(4864.6 6813.9)"><tspan x="0" y="0">Farming</tspan></text>
      </g>
    </g>
    <g class="cls-6">
      <g class="cls-6">
        <text class="cls-7" transform="translate(6369 6780.5)"><tspan x="0" y="0">Farming</tspan></text>
      </g>
      <g class="cls-6">
        <text class="cls-3" transform="translate(6369 6780.5)"><tspan x="0" y="0">Farming</tspan></text>
      </g>
    </g>
    <g class="cls-6">
      <g class="cls-6">
        <text class="cls-7" transform="translate(1620.5 6728.2)"><tspan x="0" y="0">Farming</tspan></text>
      </g>
      <g class="cls-6">
        <text class="cls-3" transform="translate(1620.5 6728.2)"><tspan x="0" y="0">Farming</tspan></text>
      </g>
    </g>
    <g class="cls-6">
      <g class="cls-6">
        <text class="cls-7" transform="translate(435.6 3024)"><tspan x="0" y="0">Farming</tspan></text>
      </g>
      <g class="cls-6">
        <text class="cls-3" transform="translate(435.6 3024)"><tspan x="0" y="0">Farming</tspan></text>
      </g>
    </g>
    <g class="cls-6">
      <g class="cls-6">
        <text class="cls-7" transform="translate(392.8 3918.6)"><tspan x="0" y="0">Farming</tspan></text>
      </g>
      <g class="cls-6">
        <text class="cls-3" transform="translate(392.8 3918.6)"><tspan x="0" y="0">Farming</tspan></text>
      </g>
    </g>
    <g class="cls-6">
      <g class="cls-6">
        <text class="cls-7" transform="translate(7486 4696.5)"><tspan x="0" y="0">Merchants</tspan></text>
      </g>
    </g>
    <g class="cls-6">
      <text class="cls-8" transform="translate(203.9 4073)"><tspan x="0" y="0">Traveler Gate</tspan></text>
    </g>
    <g class="cls-6">
      <g class="cls-6">
        <text class="cls-7" transform="translate(576.1 5299.6)"><tspan x="0" y="0">Elevator</tspan></text>
      </g>
      <g class="cls-6">
        <text class="cls-3" transform="translate(576.1 5299.6)"><tspan x="0" y="0">Elevator</tspan></text>
      </g>
    </g>
  </g>
  <g class="cls-6">
    <text class="cls-4" transform="translate(2011 3233.5)"><tspan x="0" y="0">Elevator</tspan></text>
  </g>
</svg>